<?xml version="1.0" encoding="utf-8"?>
<!-- Generator: Adobe Illustrator 27.5.0, SVG Export Plug-In . SVG Version: 6.00 Build 0)  -->
<svg version="1.1" xmlns="http://www.w3.org/2000/svg" xmlns:xlink="http://www.w3.org/1999/xlink" x="0px" y="0px"
	 viewBox="0 0 2200 2200" style="enable-background:new 0 0 2200 2200;" xml:space="preserve">
<g id="background">
	<rect style="fill:#FFFFFF;" width="2200" height="2200"/>
</g>
<g id="Objects">
	<g>
		<path style="fill:#0E2C8C;" d="M1861.682,467.461c-0.005-0.403-0.026-0.805-0.061-1.206c-0.011-0.123-0.019-0.246-0.032-0.368
			c-0.053-0.473-0.121-0.943-0.215-1.408c-0.021-0.105-0.051-0.207-0.074-0.312c-0.08-0.358-0.17-0.713-0.274-1.065
			c-0.049-0.166-0.101-0.33-0.156-0.493c-0.103-0.312-0.217-0.619-0.338-0.924c-0.054-0.135-0.103-0.271-0.161-0.404
			c-0.183-0.424-0.383-0.841-0.602-1.25c-0.042-0.078-0.089-0.152-0.133-0.229c-0.191-0.342-0.395-0.678-0.612-1.008
			c-0.07-0.105-0.141-0.209-0.213-0.313c-0.216-0.312-0.445-0.617-0.685-0.916c-0.062-0.077-0.121-0.156-0.185-0.232
			c-0.309-0.37-0.63-0.733-0.976-1.079L1601.591,200.88c-0.345-0.346-0.708-0.667-1.078-0.976c-0.075-0.063-0.153-0.121-0.229-0.183
			c-0.301-0.242-0.609-0.472-0.924-0.691c-0.1-0.069-0.2-0.139-0.302-0.206c-0.338-0.223-0.682-0.432-1.034-0.628
			c-0.068-0.038-0.133-0.08-0.202-0.117c-0.414-0.223-0.837-0.425-1.267-0.61c-0.12-0.052-0.244-0.096-0.365-0.145
			c-0.32-0.129-0.644-0.248-0.971-0.355c-0.153-0.05-0.306-0.099-0.461-0.145c-0.371-0.11-0.745-0.206-1.122-0.289
			c-0.087-0.019-0.172-0.044-0.259-0.061c-0.474-0.096-0.952-0.166-1.432-0.219c-0.109-0.012-0.22-0.019-0.329-0.029
			c-0.417-0.037-0.836-0.059-1.256-0.063c-0.062-0.001-0.122-0.009-0.185-0.009H751.348c-38.568,0-69.945,31.377-69.945,69.945
			v107.406H408.252c-38.568,0-69.945,31.378-69.945,69.945V1933.9c0,38.568,31.377,69.945,69.945,69.945h1040.4
			c38.568,0,69.945-31.378,69.945-69.945v-107.405h273.151c38.568,0,69.945-31.378,69.945-69.945V467.672
			C1861.693,467.601,1861.683,467.532,1861.682,467.461z M1606.319,251.262l200.266,200.265h-162.603
			c-20.767,0-37.663-16.895-37.663-37.663V251.262z M1791.748,1794.212H751.348c-20.767,0-37.663-16.896-37.663-37.663V266.1
			c0-20.767,16.896-37.663,37.663-37.663h822.688v185.427c0,38.568,31.378,69.945,69.945,69.945h185.429v1272.74
			C1829.411,1777.317,1812.515,1794.212,1791.748,1794.212z"/>
		<path style="fill:#0E2C8C;" d="M1655.331,667.027H887.764c-8.914,0-16.141,7.227-16.141,16.141
			c0,8.914,7.227,16.141,16.141,16.141h767.567c8.914,0,16.141-7.227,16.141-16.141
			C1671.472,674.254,1664.246,667.027,1655.331,667.027z"/>
		<path style="fill:#0E2C8C;" d="M1655.331,882.528H887.764c-8.914,0-16.141,7.227-16.141,16.141
			c0,8.914,7.227,16.141,16.141,16.141h767.567c8.914,0,16.141-7.227,16.141-16.141
			C1671.472,889.754,1664.246,882.528,1655.331,882.528z"/>
		<path style="fill:#0E2C8C;" d="M1655.331,1098.028H887.764c-8.914,0-16.141,7.227-16.141,16.141
			c0,8.914,7.227,16.141,16.141,16.141h767.567c8.914,0,16.141-7.227,16.141-16.141
			C1671.472,1105.255,1664.246,1098.028,1655.331,1098.028z"/>
		<path style="fill:#0E2C8C;" d="M1655.331,1313.528H887.764c-8.914,0-16.141,7.227-16.141,16.141
			c0,8.914,7.227,16.141,16.141,16.141h767.567c8.914,0,16.141-7.227,16.141-16.141
			C1671.472,1320.755,1664.246,1313.528,1655.331,1313.528z"/>
		<path style="fill:#0E2C8C;" d="M1293.639,1529.028H887.764c-8.914,0-16.141,7.227-16.141,16.141s7.227,16.141,16.141,16.141
			h405.875c8.914,0,16.141-7.227,16.141-16.141S1302.554,1529.028,1293.639,1529.028z"/>
	</g>
</g>
</svg>
