<?xml version="1.0" standalone="no"?>
<!DOCTYPE svg PUBLIC "-//W3C//DTD SVG 20010904//EN"
 "http://www.w3.org/TR/2001/REC-SVG-20010904/DTD/svg10.dtd">
<svg version="1.0" xmlns="http://www.w3.org/2000/svg"
 width="1280.000000pt" height="1118.000000pt" viewBox="0 0 1280.000000 1118.000000"
 preserveAspectRatio="xMidYMid meet">
<g transform="translate(0.000000,1118.000000) scale(0.100000,-0.100000)"
fill="#000000" stroke="none">
<path d="M6410 11157 c-131 -44 -213 -114 -267 -226 -38 -80 -44 -212 -14
-302 39 -116 134 -215 249 -256 l57 -20 -3 -164 c-2 -110 -7 -168 -15 -176
-10 -10 -96 4 -407 68 -217 44 -768 156 -1225 249 -1135 231 -1332 271 -2089
425 -362 74 -664 140 -672 146 -8 6 -14 20 -14 31 0 29 -37 90 -67 112 -37 28
-120 33 -167 11 -54 -26 -80 -68 -84 -140 -3 -50 0 -66 20 -95 25 -38 97 -80
138 -80 57 0 143 65 163 123 4 12 195 -37 223 -58 13 -9 -106 -378 -797 -2465
-446 -1350 -815 -2463 -821 -2472 -8 -17 -33 -18 -303 -18 -162 0 -295 -3
-295 -7 0 -9 47 -71 94 -123 281 -311 819 -531 1481 -604 842 -94 1666 -3
2174 240 215 102 402 251 495 393 72 110 83 101 -132 101 -103 0 -192 4 -198
8 -6 4 -311 909 -677 2012 -922 2779 -957 2885 -957 2898 0 7 8 12 18 12 10 0
463 -133 1007 -295 545 -162 1454 -433 2020 -602 567 -168 1036 -311 1044
-317 11 -8 12 -31 7 -106 -3 -52 -78 -1429 -166 -3060 -88 -1631 -165 -3044
-170 -3140 -5 -96 -14 -263 -20 -370 -6 -107 -15 -274 -20 -370 -5 -96 -14
-263 -20 -370 -6 -107 -15 -274 -20 -370 -6 -96 -15 -265 -20 -375 -12 -234
-20 -279 -61 -354 -86 -161 -256 -261 -520 -305 -52 -9 -273 -38 -492 -66
-838 -106 -1051 -158 -1291 -319 -127 -85 -247 -218 -291 -324 l-15 -37 3190
0 c1754 0 3190 2 3190 5 0 3 -13 32 -30 64 -92 182 -313 350 -572 435 -192 63
-423 104 -958 171 -604 76 -666 88 -807 156 -104 50 -197 134 -243 221 -39 72
-36 37 -76 813 -14 270 -40 751 -59 1070 -42 702 -76 1325 -110 1980 -14 270
-30 573 -35 675 -6 102 -48 878 -95 1725 -47 847 -92 1668 -100 1825 -8 157
-17 304 -19 327 -2 22 0 46 4 53 6 9 46 4 161 -20 278 -57 3490 -710 3649
-742 85 -17 161 -36 167 -42 10 -9 -54 -214 -291 -931 -168 -506 -535 -1617
-817 -2470 -281 -852 -516 -1556 -522 -1562 -7 -10 -63 -13 -218 -13 -116 0
-209 -4 -209 -9 0 -19 90 -129 154 -188 315 -294 818 -477 1511 -549 236 -25
849 -25 1078 -1 488 53 869 161 1140 323 91 55 216 154 277 221 58 63 130 168
130 190 0 10 -50 13 -270 13 -269 0 -270 0 -284 23 -7 12 -57 153 -109 312
-53 160 -418 1260 -811 2446 -394 1186 -716 2164 -716 2173 0 9 6 16 14 16 24
0 221 -42 237 -51 11 -5 18 -26 21 -59 9 -90 74 -150 163 -150 67 0 112 29
144 93 34 69 24 127 -32 183 -71 70 -159 68 -235 -5 l-40 -39 -99 29 c-54 16
-1020 305 -2148 640 -1127 336 -2056 617 -2063 624 -14 12 -39 331 -29 359 3
7 27 16 54 20 61 8 156 53 208 99 88 76 142 216 132 337 -15 176 -121 306
-297 365 -91 30 -126 30 -210 2z m-3989 -1118 c76 -228 417 -1257 759 -2287
342 -1030 619 -1879 616 -1887 -5 -13 -195 -15 -1526 -15 -1226 0 -1522 2
-1526 13 -4 12 1493 4556 1513 4590 3 4 10 6 16 4 6 -2 73 -190 148 -418z
m8921 -3975 c417 -1253 758 -2289 758 -2301 l0 -23 -1524 0 c-931 0 -1527 4
-1531 9 -4 7 1436 4383 1510 4589 3 8 11 12 17 10 7 -3 354 -1030 770 -2284z"/>
</g>
</svg>
