<?xml version="1.0" encoding="UTF-8"?>
<svg id="_레이어_1" data-name="레이어 1" xmlns="http://www.w3.org/2000/svg" viewBox="0 0 712 717">
  <defs>
    <style>
      .cls-1, .cls-2 {
        fill: #FFFFFF;
      }

      .cls-2 {
        fill-rule: evenodd;
      }
    </style>
  </defs>
  <g>
    <path class="cls-2" d="M212.26,539.75h47.99c1.86,0,2.92,2.13,1.8,3.61l-16.77,22.28c-.69.92-1.98,1.18-2.97.58-11.1-6.68-21.63-14.2-31.5-22.49-1.61-1.35-.65-3.99,1.46-3.99Z"/>
    <path class="cls-2" d="M288.07,508.82l-17.87,23.73c-.43.57-1.09.9-1.8.9h-68.19c-.58,0-1.15-.22-1.57-.63-7.82-7.48-15.14-15.47-21.91-23.93-1.19-1.48-.15-3.68,1.75-3.68h107.8c1.86,0,2.92,2.13,1.8,3.61Z"/>
    <path class="cls-2" d="M311.91,477.17l-15.69,20.84c-.43.57-1.09.9-1.8.9h-124.12c-.73,0-1.42-.35-1.85-.95-4.84-6.76-9.34-13.78-13.49-21.04-.86-1.5.24-3.36,1.97-3.36h153.18c1.86,0,2.92,2.13,1.8,3.61Z"/>
    <path class="cls-2" d="M469.97,539.75h56.57c2.11,0,3.07,2.64,1.46,3.99-12.12,10.17-25.22,19.2-39.16,26.92-1.03.57-2.32.25-2.97-.73l-17.77-26.67c-1-1.5.08-3.51,1.88-3.51Z"/>
    <path class="cls-2" d="M446.95,505.21h113.38c1.9,0,2.94,2.2,1.75,3.68-6.77,8.46-14.1,16.45-21.91,23.93-.42.4-.99.63-1.57.63h-75.84c-.75,0-1.46-.38-1.88-1l-15.81-23.73c-1-1.5.08-3.51,1.88-3.51Z"/>
    <path class="cls-2" d="M583.85,476.92c-4.15,7.25-8.65,14.27-13.49,21.04-.43.59-1.11.95-1.85.95h-128.78c-.75,0-1.46-.38-1.88-1l-13.89-20.84c-1-1.5.08-3.51,1.88-3.51h156.03c1.73,0,2.83,1.87,1.97,3.36Z"/>
    <path class="cls-2" d="M212.26,539.75h47.99c1.86,0,2.92,2.13,1.8,3.61l-16.77,22.28c-.69.92-1.98,1.18-2.97.58-11.1-6.68-21.63-14.2-31.5-22.49-1.61-1.35-.65-3.99,1.46-3.99Z"/>
    <path class="cls-2" d="M288.07,508.82l-17.87,23.73c-.43.57-1.09.9-1.8.9h-68.19c-.58,0-1.15-.22-1.57-.63-7.82-7.48-15.14-15.47-21.91-23.93-1.19-1.48-.15-3.68,1.75-3.68h107.8c1.86,0,2.92,2.13,1.8,3.61Z"/>
    <path class="cls-2" d="M311.91,477.17l-15.69,20.84c-.43.57-1.09.9-1.8.9h-124.12c-.73,0-1.42-.35-1.85-.95-4.84-6.76-9.34-13.78-13.49-21.04-.86-1.5.24-3.36,1.97-3.36h153.18c1.86,0,2.92,2.13,1.8,3.61Z"/>
    <path class="cls-2" d="M469.97,539.75h56.57c2.11,0,3.07,2.64,1.46,3.99-12.12,10.17-25.22,19.2-39.16,26.92-1.03.57-2.32.25-2.97-.73l-17.77-26.67c-1-1.5.08-3.51,1.88-3.51Z"/>
    <path class="cls-2" d="M446.95,505.21h113.38c1.9,0,2.94,2.2,1.75,3.68-6.77,8.46-14.1,16.45-21.91,23.93-.42.4-.99.63-1.57.63h-75.84c-.75,0-1.46-.38-1.88-1l-15.81-23.73c-1-1.5.08-3.51,1.88-3.51Z"/>
    <path class="cls-2" d="M583.85,476.92c-4.15,7.25-8.65,14.27-13.49,21.04-.43.59-1.11.95-1.85.95h-128.78c-.75,0-1.46-.38-1.88-1l-13.89-20.84c-1-1.5.08-3.51,1.88-3.51h156.03c1.73,0,2.83,1.87,1.97,3.36Z"/>
  </g>
  <g>
    <path class="cls-2" d="M365.46,572.19h2.82l.51-.26v-1.03l-.77-1.03-.26-.77-.51-.51-.51-1.03v-.51l-.26-.26v-2.82l-.26-.26v-.51l-.77-.77-1.03-.51-.77-.77v-.51l-.26-.26v-1.28l.26-.26v-.77l.26-.26v-2.31l-1.54-1.54-.51-.26h-1.28l-2.31,1.54h-.51l-2.31,1.28-1.28.26-1.28.77h-.51l-.26.26h-.51l-.26.26-1.28.26-.77.51h-.77l-.26.26-1.8.26-.77.51h-.51l-.26.26h-.77l-.26.26h-.77l-.26.26h-.51l-.26.26h-.77l-.26.26h-1.54l-.26.26h-1.54l-.26.26h-3.08c-.34.26-.68.51-1.03.77,4.74,3.95,9.2,5.92,12.12,6.95,4.58,1.61,8.76,2.07,10.99,2.32,1.07.12,3.92.39,7.54.46.59.01,1.08.02,1.41.02ZM405.98,562.96c-.26-.34-.51-.68-.77-1.03h-1.03l-.26-.26h-3.33l-.26-.26h-.77l-.26-.26h-1.03l-.26-.26h-.77l-.26-.26h-.77l-.26-.26h-.77l-.26-.26h-1.03l-.26-.26h-.51l-.26-.26h-.51l-1.03-.51h-.77l-.26-.26-1.28-.26-.77-.51h-.51l-.26-.26-1.28-.26-1.03-.77h-.51l-3.59-1.8-2.05-1.54h-1.54l-.51.26-2.05,2.05-.26.51v1.03l.77,1.28v.77l.26.26v1.03l-.26.51-1.03,1.03-.77.26-.77.77v3.08l-.26.26v1.03l-.51.77v.51l-.51,1.03-.77,1.03v1.03l.26.26c4.22.55,11.56.93,20.09-1.67,6.73-2.06,11.69-5.22,14.79-7.56ZM427.52,492.18h-1.8l-.26.26h-1.03l-.26.26h-.77l-.77.51h-.51l-1.03.51h-.77l-.26.26h-.77l-2.05,1.03h-.77l-.26.26h-.51l-1.28.77h-.51l-.26.26-1.28.26-1.8,1.03h-.51l-1.03.51-.51.51-1.28.51-.77.77-1.28.51-.77.77-1.03.51-2.05,1.8h-.26l-2.31,2.31v9.49l-.26.26v2.05l-.26.26v1.03l-.26.26v.77l-.26.26-.26,2.31-.26.26v.77l-.26.26v.51l-.51,1.03v.77l-.26.26v.77l-.26.26v.51l-.77,1.28-.26,1.28-3.08,6.15-.51.51-.26.77-1.03,1.28-.26.77-1.54,1.8v.26l-2.05,2.05v.26l-1.28,1.28v.26l-3.08,3.08v1.03l.26.26,2.05,1.03h.51l2.31,1.28h.51l.26.26,1.28.26,1.28.77h.77l.26.26h.51l1.03.51h.77l.26.26h.77l.26.26h1.28l.26.26h1.28l.26.26h1.03l.26.26h1.03l.26.26h1.54l.26.26h11.28l.26-.26h1.03l.26-.26h1.03l.26-.26h.77l.26-.26h1.03l.26-.26h1.03l.26-.26h.77l.26-.26h.51l.26-.26h.51l1.03-.51h.77l.26-.26h.51l1.28-.77,1.28-.26.51-.51,1.54-.77h.51l.51-.26.51-.51h.26l.51-.51h.26l.51-.51h.26l.51-.51,1.03-.51.77-.77.77-.26,1.28-1.28h.26l5.64-5.64v-.26l3.08-3.33v-.26l1.28-1.28v-.26l1.28-1.28v-.26l1.54-1.54h.26l.51-.51.26-.51v-1.03l-1.28-.77h-.51l-.26-.26h-.51l-1.03-.51h-.77l-.26-.26h-.51l-.26-.26h-.51l-1.03-.51h-.77l-.26-.26h-1.03l-.26-.26h-.77l-.77-.51h-.77l-.26-.26h-1.03l-.26-.26h-1.8l-.26-.26h-1.28l-.26-.26h-1.8l-.26-.26h-.77l-.26-.26h-5.39l-.26.26h-1.28l-.26.26h-2.31l-.51-.51v-.51l.26-.26v-.77l.51-1.03.51-.51.26-1.28.51-.77v-.51l.26-.26v-.51l.26-.26v-.51l.26-.26v-.51l.26-.26v-.51l.26-.26v-.51l.51-1.03v-1.28l.26-.26v-1.54l.26-.26v-.77l.26-.26v-1.03l.26-.26v-1.03l.26-.26v-3.85l.26-.26v-2.56l.26-.26v-3.59l.26-.26v-1.54l.26-.26v-2.31l-.26-.26ZM411.11,537.06v.26l-.51.51v.26l-.51.51h-.26l-1.03,1.03h-.26l-1.8,1.8h-.26l-.51.51h-.26l-.26.26h-.26l-.26.26h-.26l-.26.26h-.26l-.51.51h-.26l-.26.26h-.26l-.26.26h-.51l-.26.26h-.26l-.26.26h-.26l-.26.26h-.26l-.26.26h-.26l-.26.26h-.26l-.26.26h-.51l-.26.26h-.26l-.26.26h-.26l-.26.26h-.26l-.26.26h-.77l-.26.26h-.77l-.26.26h-1.03l-.26.26h-.77l-.26.26h-1.28l-.26.26h-.51l-.26-.26h-.51l-.26-.26v-.26l.51-.51h.51l.26-.26h.77l.26-.26h.26l.26-.26h.26l.26-.26h.26l.26-.26h.51l.26-.26h.26l.26-.26h.51l.51-.51h.26l.26-.26h.26l.26-.26h.51l.26-.26h.51l.26-.26h.26l.26-.26h.51l.26-.26h.26l.26-.26h.51l.26-.26h.26l.26-.26h.26l.26-.26h.26l.26-.26h.51l.26-.26h.26l.26-.26h.26l.26-.26h.26l.51-.51h.51l.26-.26h.26l.26-.26h.26l.51-.51h.26l.51-.51h.26l.51-.51h.26l.26-.26h.26l.26-.26h.26l.26-.26h.26l.26-.26h.26l.26.26ZM312.38,491.92l-.51.51v3.08l.26.26v2.05l.26.26v2.82l.26.26v2.56l.26.26v2.82l.26.26v1.54l.26.26v1.03l.26.26v1.03l.26.26v1.03l.26.26v1.03l.26.26v.77l.26.26v.51l.26.26v.51l.51,1.03v.77l.26.26v.51l.51.77v.51l.51.77v.51l1.03,1.8v.51l.26.26v1.03l-.77.51h-.77l-.26-.26h-1.8l-.26-.26h-1.8l-.26-.26h-3.08l-.26.26h-1.8l-.26.26h-1.28l-.26.26h-1.8l-.26.26h-1.28l-.26.26h-1.03l-.26.26h-.77l-.26.26h-.51l-1.03.51h-1.03l-.26.26h-.77l-.26.26h-.51l-.26.26h-.51l-1.03.51h-1.03l-1.54.77h-.51l-1.03.51-.51.51v.77l.26.51,3.08,3.08.51,1.03,4.1,4.36v.26l1.28,1.28v.26l3.08,3.08h.26l3.08,2.82h.26l1.28,1.03.77.26.51.51h.26l.51.51h.26l.51.51h.26l1.03.77h.51l2.82,1.54h.51l2.05,1.03h.77l.26.26,1.28.26.77.51h.77l.26.26h.77l.26.26h1.28l.26.26h.77l.26.26h.77l.26.26h1.54l.26.26h10.77l.26-.26h1.03l.26-.26h1.03l.26-.26h1.28l.26-.26h1.54l.26-.26h1.03l.26-.26h.77l.26-.26h.51l1.03-.51,1.8-.26,1.8-1.03h.51l.26-.26,1.28-.26.51-.51,1.28-.26,2.05-1.03,1.03-1.03v-.51l-2.31-2.31v-.26l-3.08-3.33v-.26l-1.8-2.05-.77-1.54-.77-.77-.51-1.28-.51-.51-.77-1.8-.51-.51-1.54-3.08v-.51l-.26-.26v-.77l-.77-1.28v-.51l-.51-1.03v-.77l-.51-1.03v-.77l-.51-1.03v-.77l-.26-.26v-1.03l-.51-1.03v-.77l-.26-.26v-.77l-.26-.26v-1.54l-.26-.26v-10.51l-2.56-2.56h-.26l-.77-.77h-.26l-2.82-2.05-.77-.26-2.05-1.54-4.1-2.05h-.51l-.26-.26-1.28-.26-1.8-1.03h-.51l-.26-.26h-.77l-.77-.51h-.51l-1.03-.51h-.77l-.26-.26h-.51l-.26-.26h-.51l-1.03-.51h-.77l-.26-.26h-.77l-.26-.26-1.8-.26ZM328.79,537.57l.26-.26h.51l.26.26h.26l.26.26h.26l.51.51h.51l.26.26h.26l.26.26h.26l.26.26h.26l.26.26h.26l.26.26h.51l.26.26h.26l.26.26h.26l.51.51h.26l.26.26h.51l.26.26h.26l.26.26h.26l.26.26h.26l.26.26h.26l.26.26h.77l.26.26h.51l.26.26h.51l.26.26h.51l.26.26h.26l.26.26h.77l.26.26h.51l.51.51h.26l.26.26h.26l.26.26h.26l.26.26h.51l.51.51h.26l.51.51h.51l.26.26h.26l.26.26v.51l-.26.26h-1.8l-.26-.26h-1.03l-.26-.26h-.77l-.26-.26h-.77l-.26-.26h-1.03l-.26-.26h-.51l-.26-.26h-.26l-.26-.26h-.26l-.26-.26h-.26l-.26-.26h-.51l-.26-.26h-.51l-.26-.26h-.26l-.26-.26h-.26l-.26-.26h-.26l-.26-.26h-.51l-.26-.26h-.26l-.26-.26h-.26l-.26-.26h-.26l-.51-.51h-.26l-.26-.26h-.26l-.26-.26h-.26l-.51-.51h-.26l-.26-.26h-.26l-.77-.77h-.26l-2.56-2.56v-.26ZM369.56,457.81l-.77,1.03v.26l-1.54,1.8-.77,1.54-.77.77-.51,1.03-.77.77-.26.77-1.03,1.03v.26l-1.54,2.05-.26.77-.77.77v.26l-1.54,2.05-.26.77-1.03,1.03-.26.77-1.03,1.28-.51,1.28-.77,1.03v.51l-.26.51-.51.51-1.8,3.59v.51l-1.03,1.28-.26.51v.51l-.26.26v.51l-1.03,1.8v.51l-.26.26-.26,1.28-.77,1.28v1.03l-.26.26v.77l-.77,1.54v.77l-.26.26v1.03l-.26.26v1.28l-.26.26v.77l-.26.26v1.03l-.26.26v1.28l-.26.26v2.82l-.26.26v7.95l.26.26v2.82l.26.26v1.03l.26.26v.51l.51,1.03v1.28l.26.26v.77l.26.26.26,1.28.77,1.28v1.03l1.03,1.8.26,1.28,1.54,3.08,1.03,1.28.26.77.51.51v.26l.51.51v.26l.51.51v.26l.51.51.51,1.03.77.77v.26l2.56,2.56v.26l1.8,1.8v.26l1.54,1.54h.26l1.03,1.03h.26l3.59,3.59h.26l1.8,1.8h1.03l.26-.51,1.54-1.54h.26l1.8-1.8h.26l.26-.51h.26l1.8-1.8h.26l4.87-5.13v-.26l1.03-1.03v-.26l1.28-1.28v-.26l.51-.51v-.26l2.05-2.82.77-1.8.51-.51.51-1.03v-.51l.51-.51.51-1.03.26-1.28,1.03-1.8v-.77l.26-.26v-.51l.26-.26v-.51l.26-.26v-.51l.51-1.03v-1.03l.26-.26v-1.03l.51-1.03v-1.03l.26-.26v-1.54l.26-.26v-3.08l.26-.26v-3.85l-.26-.26v-4.62l-.26-.26v-1.54l-.26-.26v-1.03l-.26-.26v-.77l-.26-.26v-1.03l-.26-.26v-1.28l-.26-.26v-.77l-.51-.77v-.77l-.26-.26-.26-1.8-.77-1.28v-.51l-.26-.26-.26-1.28-1.54-2.82v-.51l-.51-.51-.77-1.54v-.51l-.51-.51-.26-.51v-.51l-.51-1.03-.51-.51-1.03-2.31-.51-.51-.26-.77-.77-.77-.51-1.28-.77-.77-.77-1.8-.77-.77-.26-.77-1.28-1.28-.26-.77-.51-.51-.77-1.54-.77-.77-.26-.77-1.03-1.28-.26-.77-1.03-1.03-.51-1.03-.77-.77-.51-1.03-.77-.77-.26-.77h-.77ZM439.5,452.74v13l-.22.22v.45l.22.45.67.45h75.07l.9-.67v-4.71l.22-.22v-2.24l-.22-.22v-6.27l-.45-.45v-.22l-.45-.22h-74.84l-.9.67ZM299.9,452.74l-.22-.45-.67-.45h-.67l-.22.22h-73.5l-.45.22-.67.9v1.79l-.22.22v4.93l.22.22v6.27l.9.67h75.07l.67-.67v-3.14l-.22-.22v-10.53ZM469.53,431.68v4.26l.22.22v6.05l-.22.22v4.26l.67.9h21.96l.45-.22.22-.45v-.45l.22-.22v-1.79l.22-.22v-5.6l-.22-.22v-.67l-.22-.22v-.45l-.22-.22v-.45l-.22-.22v-.45l-.22-.45-.9-1.12-.22-.67-2.02-1.79h-.22l-.45-.45h-.67l-.22-.22h-3.14l-.22-.22h-3.81l-.22.22h-1.79l-.22.22h-8.07l-.45.45ZM246.34,437.5v.67l-.22.22v4.26l.22.22v3.59l.22.45.9.67h21.74l.45-.22.22-.45v-.45l.22-.22v-3.59l-.22-.22v-3.14l.22-.22v-7.17l-.22-.45-.45-.22h-8.52l-.22-.22h-1.12l-.22-.22h-5.6l-.22.22h-1.12l-.22.22-1.12.22-.45.45h-.22l-1.79,1.79-.45.9-.67.67-1.12,2.24ZM583.32,386.94l-2.25-2.25-1-.5-1-1-.75-.25-1.25-1-.5-.25h-.5l-1-.75h-.5l-.25-.25h-1.25l-.25-.25h-1.25l-.25-.25h-.5l-1-.5-.75-.75h-.25l-.5-.5-1-.5-.75-.75-1-.5h-4.25l-.25.25h-1l-.25.25h-.75l-.75.5h-.5l-.25.25h-.5l-.25.25-1.25.25-2.5,1.25-.5.5-1,.5-.75.75h-.25l-.75.75v.25l-.5.5-.5,1v.5l.25.5,1,.5h1.75l.25.25h1l.25.25h.75l.25.25h.5l4.5,2.25.75.75h.25l3,3v.25l1,1,.25.75.75.75.25.5v.5l.5.75v.5l.5.75v.75l.25.25v2l.25.25v2.75l-.25.25v1.75l-.25.25v1l-.25.25-.25,1.25-.75,1.5-.5.5v.25l-.5.5-.5,1-1.5,1.5h-.25l-1.5,1.25-2,1h-.5l-1,.5h-.75l-.25.25h-4.5l-.25-.25h-.75l-.25-.25h-.5l-1-.75h-.5l-.5-.5h-.25l-2-2-.25-.5.25-1.25.5-.5h.25l2.25-2.25.5-1v-.75l.25-.25v-1.25l.25-.25v-1.5l-.25-.25v-1.75l-.25-.25v-.75l-.5-1-.5-.5-.25-.75-1-1v-.25l-2.5-2.5-4.5-2.25h-.5l-.25-.25h-1l-.25-.25h-4.75l-.25.25h-1.25l-.25.25h-.5l-.25.25h-.5l-.25.25h-.5l-.25.25-1.25.25-1,.75h-.5l-1.5.75-.75.75-1,.5-2.5,2.5v.25l-1,1-.25.75-1.25,1.5-1.25,2.5-.25,1.75-.25.25v.5l-.25.25v.75l-.25.25v1.25l-.25.25v5.5l.25.25v1.25l.25.25v.5l.5,1v.75l.25.25v.5l.5,1,.5.5.5,1,1.75,1.75h.25l1,1,.75.25.75.75v.25l.75,1v.5l.25.25v.5l.25.25.25,1.25,1.25,1.5v.25l2,2,.75.25.5.5h.25l1,.75h.5l1.25.75h.5l.25.25h.75l.25.25h1.5l.25.25h1l.25.25h3l.25-.25h1.25l.25-.25h.75l.25-.25h.75l.25-.25,1.25-.25,1.5-.75,1-.75h1.25l2.25,1.25h.5l.75.5,1.75.25.25.25h1.5l.25.25h5l.25-.25h1.75l.25-.25h1l.25-.25,1.75-.25.75-.5h.5l.25-.25,1.25-.25,1-.75h.5l.5-.25.5-.5,1-.5.75-.75h.25l2-2h.25l1.75-2v-.25l.5-.5.25-.75,1-1.25.75-1.5v-.5l.5-.75v-.75l.25-.25v-.75l.25-.5,1.5-1.5h.25l2-1.75v-.25l1-1v-.25l1-1.25.5-1.25.75-1v-.5l.25-.25v-.5l.25-.25.25-1.25.75-1.5v-2.25l.25-.25v-4l-.25-.25v-2.5l-.25-.25-.25-1.75-.5-1v-.75l-.25-.25-.25-1.25-1.5-3-.5-.5-.25-.75-2-2.25v-.25ZM156.57,386.94v.25l-1.25,1.25v.25l-.75.75v.25l-1.5,2v.5l-1,1.75v.5l-.25.25v.75l-.25.25v.75l-.25.25v1l-.25.25v.75l-.25.25v1.75l-.25.25v5.75l.25.25v1.25l.25.25v.75l.5,1,.25,1.75.5,1,.5.5.25.5v.5l1.75,2v.25l2.5,2.5,1.5.75,1,1.5v.5l.25.25v.75l.25.25v.5l.5,1v.5l.5.5.5,1.25.5.5.5,1,3,3h.25l1.5,1.5.75.25.75.75,1,.5h.5l.5.5,1,.5h.5l.25.25h.5l.25.25h.5l1,.5h.75l.25.25h1l.25.25h2l.25.25h5.5l.25-.25h1.25l.25-.25,1.75-.25.75-.5,1.25-.25,1.25-.75h1.5l2.75,1.5h.5l.25.25h.75l.25.25h1l.25.25h.75l.25.25h3.5l.25-.25,2.25-.25.25-.25h.75l.25-.25,1.25-.25,2-1,.75-.75.75-.25,1.5-1.5v-.25l.5-.5,1.25-2.5v-1.5l.25-.25v-.5l1.5-1.5,3-1.5.25-.5,1.5-1.5v-.25l1-1.25.25-.5v-.5l1-2v-2.25l.25-.25v-5.5l-.25-.25v-1.5l-.25-.25v-.75l-.5-.75v-.5l-.5-.75v-.5l-1.25-2.5-.75-.75-.75-1.5-4-4h-.25l-1.25-1-.5-.25h-.5l-1.75-1h-.5l-.25-.25h-.5l-.25-.25h-.5l-.25-.25h-.5l-1-.5h-1.25l-.25-.25h-3.75l-.25.25h-1.25l-.25.25-1.25.25-.75.5h-.5l-2.5,1.25-1,1h-.25l-2,2v.25l-1,1v.5l-1,1.75v.75l-.25.25v4.5l.25.25v.75l.75,1.5,2,2,.5.25v.25l.5.5v.75l-.25.5-1.5,1.5h-.25l-1.5,1.25-1.5.75h-1l-.25.25h-2l-.25.25h-1.25l-.25-.25h-1.25l-.25-.25h-.75l-.25-.25h-.5l-2.5-1.25-.75-.75h-.25l-2.5-2.5-.25-.75-.75-.75-.5-1v-.5l-.75-1.25v-.5l-.25-.25v-1l-.25-.25v-1.25l-.25-.25v-3.5l.25-.25v-1.25l.25-.25v-.75l.75-1.25.25-1.25.5-1,.5-.5.25-.75.5-.5v-.25l2.5-2.75h.25l.75-.75h.25l1-1,.5-.25h.5l.5-.5,1.5-.75h.5l.25-.25h.5l1-.5h1l.25-.25h1.75l.25-.25h1.75l.5-.5v-1l-.75-1v-.25l-1.75-1.75-.75-.25-1.25-1-3-1.5h-.75l-.25-.25h-.5l-.75-.5h-.5l-1-.5h-1.25l-.25-.25h-3.75l-.25.25h-.75l-1,.5-.5.5-1.25.5-1,1.25h-.25l-1,.75h-1.25l-.25.25h-1.25l-.25.25h-.75l-1.75,1h-.5l-1.25,1-.75.25-2,1.75h-.25l-2,2ZM440.62,291.85l-.9.67-.22.67v15.46l.22.22v132.21l-.22.22v2.02l-.22.22.22,3.14.67.9h24.2l.67-.67.22-.9-.22-16.58.22-.22v-32.04l.22-.22-.22-6.5.22-.22v-8.96l-.22-.22v-19.05l-.22-.22v-47.73l.22-.22v-6.72l.22-.22v-14.12l-.9-.9h-23.98ZM275.02,291.85l-.9.9v3.81l-.22.22v9.64l.45,1.57v11.2l.22.22v35.41l-.22.22v2.46l.22.22v14.79l-.22.22.22,44.37-.22.22v10.76l.45,1.79v2.91l-.22.22-.22,13.89.67.67h15.01l.22.22,9.19-.22.67-1.12v-4.71l-.22-.22v-143.64l.22-.22v-4.48l-.22-.67-.67-.67h-24.2ZM595.07,239.69l-.75.25-1.25,5.75-1.25,2.75-.25,1.25-1.75,3.25-2.75,3.5-2.5,2.5-4.25,2.75-2.75,2.75-1.25.5h-2.5l-3.75.75-3.25,1.5-2.25,1.5-3.25,3-1.5,2.25-1.75,4v1.25l-.25.25.25,6.25,1.25,3.25,2.75,3,2.25,1.25,3,.25,1.25-.75.75-3,1.5-1.5,1-.25,1.75.25,1.75,1.25,1.25,1.5.75,1.5.75,2.75v3.75l-1.75,4.5-3,3.25-3.5,2-2.5.75h-4.75l-2.5-.75-1.5-1.5-.5-3-1.5-3.25-1.5-2-3.25-3-2.75-1.5-1.5-.25-1.75-.75-5.25-.25-4.5,1.25-3.5,2-2.75,3.25-1.5,3.5-1,1-2,.25-4.25,1.75-2.25,1.75-3,3.25-2.75,5.25-1,4.75v3.25l1,4.75,1.5,2.75v.5l2.25,3,2.75,2.5,2,1.25,4,1.25h5.5l3.5-1.25,2.25-1.75,2.25-3.5.25-3-.75-2.25-1.5-1.75-1-.5h-1l-2.25,1h-1.25l-1.5-1.75-.5-1.25v-1.25l.5-1.75,1.25-2,3.25-2.5,3.5-1h2.75l1,.5,2.5.5,3.5,2.5,1.75,1.75,2.25,3.75,1.25,4.25v5.5l-1.25,5-2.5,4.25-2.75,2.75-3.25,2.5-3,1.5-3.75,1.25-4.75.25-.25.25h-6.25l-1.25.5-3.25.5-5,2.75-2.5,2.25-2.75,3.5v.5l-1.25,2v.75l-.75,1.5-1.25,4.25-1.25,1.25-1.5.75-2.75.5-4.25,2-1.75,1.25-3.75,4.25-2.25,4.75-.75,2.75v1.5l.25.25h.75l2.25-3.25,2.5-2.25,5-3,1.25-.25,1.25-.75,2.75-.25.25-.25h5l.25.25,2.5-.25.5-.5,1.5-3.5,1.5-2.25,4.75-4.5,4.75-2.5,2.75-.25.25-.25h5l.25.25,2.75.25,1.5.75,5,1.5h1.75l2.25.5h4l.25-.25,3-.25,4-1.75,4.5-3.25,2-2.25,1.75-3.75.5-.5,1.5-.25,2.25.75h5.75l2.5-.5,5.25-2.75,4.25-3.75,2.25-3.5,1.5-3.25,1-3.75.25-4.5-.25-.25v-1.75l-.5-2.25-1.75-4.5-2.5-3.75-3-2.75-.25-1.25,3-3.25,2.75-4.75.25-1.25,1-2v-1l1-3.5.25-4.75-.25-.25-.5-4.25-2-5.5-2.5-4.25-1.75-2-1.5-3.25-.25-5,.25-.25v-1.5l1.25-3.25,2.25-3.25,3.75-4,2.5-5.25.25-2.75.75-2.25.25-3.25-.25-.25v-3l-.5-1.25-.25-3.25-.5-1.5ZM144.57,239.69l-1.5,7.5v3.75l.75,2.75v1.25l1.75,5,1.5,2.75,3.75,4,2.25,3.25,1,2.5.25,2.5.25.25v2.25l-.5,2.5-1.25,2.75-3,4-2,3.75-.25,1.25-.5.75-1.25,6v4.25l1.25,6.25,2.5,5.5,3.25,4.25,1.25,1v1l-3.25,3-2.5,3.75-1.5,3.5-1,5.25v3.5l1,4.5,1.5,3.25,1.75,2.75,3.5,3.75,3.5,2.25,3.25,1.5,2,.5h2.25l.25.25,4.25-.25,2.25-.75.75.25.75.75,2.25,4.25,2,2.25,4.25,3,3.25,1.25,2.5.5,7.75-.25,5.75-1.5,2-1,4-.5.25-.25h3l.25.25,4,.5,4.25,2.25,2.5,2,3.25,3.75,2.25,4.75,1,.75h3.25l.25-.25,5,.25,4.5,1.5,4.75,2.75,3,3,1.75,2.5h.75l-.25-3.25-1.5-4.25-1-1.75-2.25-2.75-2.5-2.25-5-2.5-4-.75-1.25-1-1-2.25-.25-2-1.25-3.5-1.5-2.75-2.5-3-2.5-2.25-4.75-2.5-3-.5-1-.5h-1.5l-.25-.25h-2.75l-.25.25-5-.25-.25-.25h-2l-3.75-1.25-3-1.5-3.75-3-3-3.5-1.75-3.25-1-3-.25-4-.25-.25.5-4.75.5-.75.5-2,2.5-3.75,1.75-1.75,4-2.5,2.75-.75h3.5l3.5,1.25,3.25,3,1,2.75v2.25l-1,1.75-1.25.5-2.5-1h-1.5l-1.5.75-1.25,1.75-.5,1.25v3.25l2.25,4,2,1.5,2.75,1.25,1.25.25h5.5l1.25-.25,4.5-2.25,3.75-3.5,1-1.5,1.75-3.5,1-4.25v-4.25l-.75-3.5-1-2.75-1.75-3.25-4.5-4.5-4.5-2.25-2.75-.5-1-1-1.5-3.5-3.75-4-2.25-1.25-4.25-1.25-6.25.25-1.5.75-1.5.25-2.75,1.5-2.75,2.5-2.25,3-1,2.25-.75,3.75-1.25,1.25-2.75.75h-3.75l-4.5-1.5-1.5-1-3.5-3.75-1.75-3.75-.25-3.25,1-4,.75-1.5,2-2,1.5-.75h1.5l1.75,1,.5.75.25,2.5,1,1,1,.25,2.25-.25,3-1.75,2.25-2.5,1.25-3.25.25-5.25-.75-3.75-.5-.75-.25-1.25-1.5-2.5-3.5-3.5-2.5-1.75-3.5-1.5-6.25-.75-3.25-3-5-3.25-3.5-3.5-2-3v-.5l-1-1.5-1.5-3.5-.25-1.75-.75-2-.25-2.75-1-.25ZM244.99,261.82l-.45.9.45,1.79.9,1.34.22.9,1.12,1.57,2.46,2.46,2.02,1.12,4.71,1.12.67.67.22,1.12.9,1.34.67,1.79,2.02,2.02,1.34.67,1.12.22h9.64l.45.22.67.9v4.26l.67.9.67.22h21.06l.22-.22,26.22.22,1.12.9v2.46l-1.12,1.12h-17.25l-.9.45-.22.45v173.89l.9.67h16.13l.67-.67v-52.44l.22-.22v-2.24l.67-2.24.22-2.46.67-1.79.22-1.79.9-2.02.45-2.02.67-1.12.45-1.57,3.14-5.38,3.59-4.48,4.93-4.93,5.83-4.26,3.81-1.79.9-.67h.45l2.02-1.12,5.15-1.57,1.34-.67,2.46-.22,4.03-.9,9.41-.22,6.72,1.34h1.12l1.57.67,1.57.22,6.05,2.46.9.67,1.34.45,1.12.9,1.34.45,5.83,4.26,4.93,4.93,4.03,5.38.45,1.12.9,1.12,1.79,4.03.45.45.22,1.12.9,1.79.45,2.69.67,1.57.22,2.46.9,4.26v43.02l.22.22-.22,10.31.9.9h15.91l.9-.67v-160.22l-.22-.22.22-13.45-.9-.9h-17.48l-1.12-.67-.22-2.46.22-.67.67-.67h8.07l.22-.22h5.83l.22.22h4.03l.22-.22,29.13.22.67-.22.9-1.12v-4.26l.45-.67.45-.22h8.96l.22-.22h1.79l1.57-.67,2.24-2.46v-.45l1.12-2.02v-1.12l.9-1.12,4.71-.9,2.46-1.34,2.24-2.24,2.02-3.14.9-2.91-.45-.45h-248.73l-.22-.22-1.12.22ZM335.3,274.37l1.12-.22h67l2.69,2.02.67,1.79v5.15l-.22.22v6.05l.22.22v3.81l-.22.22v61.62l-.67,1.34-1.79,2.02-1.34.67h-66.11l-.67-.22-1.34-1.12-1.79-2.69v-46.83l-.22-.22.22-26.89-.22-.22v-3.36l.45-1.12,2.24-2.24ZM537.2,217.68l-.67-.9-1.12.22-4.71,6.05-2.02,1.79-2.91,2.02-1.34.45-1.34.9-3.59,1.12-3.59.45-1.12.45h-1.57l-.22.22h-6.95l-.22-.22h-1.57l-3.36-.67h-1.79l-2.46-.9-1.57-.22-1.12-.67-4.48-1.57-4.71-2.46-4.71-3.36-5.15-5.15-2.24-3.36-2.91-6.27-.67-.67-.9-.22h-4.48l-.67-.45.9-1.12,1.57-.67,2.02-2.02.9-.22,4.26-2.24,4.26-4.71,1.79-4.03.22-2.91.22-.22-.22-4.93-.22-.67-.9-.9h-.9l-.9.45-1.12,1.12-1.57,3.36-2.69,3.14-1.79,1.57-6.05,3.36-1.57.22-2.02.9-2.02.22-1.57.67-4.48.45-1.34.45-10.08.67-.22.22h-2.24l-.22.22h-2.02l-.22.22-23.53.45-.22.22h-6.05l-.22.22h-13.89l-.22.22h-40.11l-.22-.22h-13.45l-.22-.22-16.13-.22-.22-.22h-8.74l-.22-.22h-5.15l-.22-.22h-2.69l-.22-.22-9.19-.45-.22-.22-3.36-.22-3.36-.67h-2.02l-5.38-1.34-.67-.45-2.46-.67-.9-.67h-.45l-3.14-1.57-1.79-1.34-2.69-2.91-1.12-1.57-1.34-3.14-1.79-1.34h-1.12l-.9.67-.45,1.12-.22,4.03.22.22.22,3.14,1.34,3.36,1.79,2.69,2.69,2.69,2.02,1.34,3.36,1.57,1.34,1.57,1.79,1.12.22.9-.45.45h-2.46l-.22-.22-1.57.22-.9.9-2.69,5.83-2.24,3.36-4.48,4.71-5.6,4.26-4.26,2.24-4.48,1.57-.9.67-2.24.45-2.46.9-3.36.22-3.14.67h-7.62l-2.69-.67-3.59-.45-2.24-.9h-.67l-3.36-1.57-.67-.67-2.02-1.12-2.46-2.24-2.24-2.69-2.02-3.14-.45-.22-1.34.22-.45.9v3.59l.22.22.22,2.69.9,2.24.22,1.34,1.12,2.24,1.57,2.24,4.48,3.81,3.81,1.79,3.14.9,1.12,1.12.45,2.46,1.57,2.91.67.67,2.02,1.12,2.46.22,2.24.67.67.67.45,1.57,2.24,4.03,1.57,1.79,1.57.9h269.57l1.57-.67,2.02-1.79,1.57-3.36.45-.45.45-1.79,1.12-1.12,4.26-.67,1.79-.9,1.12-1.12,1.34-2.02.67-2.46,1.12-1.79,5.38-1.79,2.91-2.02,3.14-3.14,1.79-2.69,1.34-3.59.67-3.36v-4.71ZM322.3,251.51l.41-.22h.83l.41-.22h3.31l.41.22h10.35l.41-.22h30.23l.41-.22h9.11l.41.22h41.4l.41.22v.45l-.41.22h-2.07l-.41.22h-2.48l-.41.22h-1.66l-.41.22h-3.73l-.41.22h-30.64l-.41-.22h-2.07l-.41-.22h-.83l-.41.22h-3.73l-.41.22h-6.21l-.41.22h-21.53l-.41.22h-2.48l-.41.22h-2.9l-.41-.22h-2.9l-.41-.22h-2.48l-.41-.22h-1.24l-.41-.22h-.41l-.41-.22h-.83l-.41-.22h-.83l-.41-.22h-.83l-.41-.22v-.22ZM500.23,247.25v.9l-1.57,1.57h-.22l-.22.22h-.22l-.22.22h-.45l-.22.22h-5.15l-.22.22h-5.15l-.22.22h-6.05l-.22.22h-15.01l-.22-.22h-3.14l-.22-.22h-1.34l-.22-.22v-.22l.22-.22h2.69l.22-.22h1.57l.22-.22h2.02l.22-.22h4.26l.22-.22h1.79l.22-.22h1.79l.22-.22h4.48l.22-.22h3.81l.22-.22h2.91l.22-.22h2.46l.22-.22h2.24l.22-.22h2.24l.22-.22h1.57l.22-.22h2.02l.22-.22h.67l.45.45ZM238.27,247.48l.67-.67h.67l.22.22h.9l.22.22h2.24l.22.22h3.81l.22.22h2.24l.22.22h2.24l.22.22h2.91l.22.22h6.5l.22.22h6.05l.22.22h1.34l.22.22h.9l.22.22h1.12l.22.22h2.02l.22.22h6.5l.22.22h1.79l.22.22v.22l-.45.45h-29.36l-.22-.22h-9.19l-.22-.22h-2.24l-.22-.22h-1.12l-.22-.22h-.22l-.9-.9v-.22l-.9-.9v-.45ZM413.28,208.26h1.34l.45.45v.22l.22.22v1.12l.22.22v.9l.22.22v.67l.22.22v.67l.22.22v.9l.22.22v.67l.22.22v.67l.22.22v.45l.22.22v.67l.22.22v.67l.22.22v.67l.22.22v.45l.22.22v.45l.22.22v.45l.22.22v.67l.22.22v.9l.22.22v.67l.22.22v.45l.22.22v.45l.22.22v.45l.22.22v.9l.22.22v.45l.22.22v.45l.22.22v.45l.22.22v.45l.22.22v.67l.22.22v.45l.22.22v.22l.22.22v.45l.22.22v.45l.22.22v.45l.22.22v.45l.22.22v.22l.22.22v.22l.22.22v.45l.22.22v.45l.22.22v.45l.22.22v.45l.22.22v.22l.22.22v.45l.22.22v1.34l-.45.45h-.22l-.22.22h-.9l-.9-.9v-.22l-.45-.45v-.22l-.22-.22v-.45l-.22-.22v-.45l-.22-.22v-.45l-.22-.22v-.22l-.22-.22v-.22l-.22-.22v-.67l-.22-.22v-.45l-.22-.22v-.45l-.22-.22v-.22l-.22-.22v-.45l-.22-.22v-.67l-.22-.22v-.67l-.22-.22v-.45l-.22-.22v-.22l-.22-.22v-.45l-.22-.22v-.45l-.22-.22v-.67l-.22-.22v-.45l-.22-.22v-.45l-.22-.22v-.45l-.22-.22v-.67l-.22-.22v-.45l-.22-.22v-.45l-.22-.22v-.22l-.22-.22v-.67l-.22-.22v-1.12l-.22-.22v-.9l-.22-.22v-.67l-.22-.22v-.9l-.22-.22v-.67l-.22-.22v-.67l-.22-.22v-1.34l-.22-.22v-.67l-.22-.22v-.45l-.22-.22v-1.12l-.22-.22v-1.12l-.22-.22v-2.02l.45-.45ZM367.79,208.26h2.02l.45.45v2.69l.22.22v26.22l-.22.22v3.36l-.67.67h-1.79l-.67-.67v-32.27l.22-.22v-.22l.45-.45ZM344.71,208.26l.45.45v.22l.22.22v1.12l-.22.22v1.79l-.22.22v1.79l-.22.22v2.91l-.22.22v2.02l-.22.22v1.34l-.22.22v.9l-.22.22v2.02l-.22.22v2.02l-.22.22v1.79l-.22.22v1.12l-.22.22v.9l-.22.22v1.57l-.22.22v2.02l-.22.22v.9l-.22.22v1.12l-.22.22v.9l-.22.22v.9l-.22.22v.9l-.22.22v.22l-.45.45h-1.34l-.22-.22h-.22l-.67-.67v-.9l.22-.22v-.9l.22-.22v-1.12l.22-.22v-1.79l.22-.22v-1.57l.22-.22v-1.12l.22-.22v-.9l.22-.22v-1.34l.22-.22v-1.57l.22-.22v-1.57l.22-.22v-1.12l.22-.22v-.67l.22-.22v-.9l.22-.22v-2.02l.22-.22v-1.57l.22-.22v-1.34l.22-.22v-.9l.22-.22v-.9l.22-.22v-2.46l.22-.22v-2.24l.22-.22v-.9l.22-.22v-.22l.22-.22h1.57ZM323.65,208.26l.45.45v.22l.22.22v.45l-.22.22v1.12l-.22.22v.45l-.22.22v.9l-.22.22v.9l-.22.22v.67l-.22.22v.45l-.22.22v.67l-.22.22v.67l-.22.22v1.12l-.22.22v1.12l-.22.22v.45l-.22.22v.22l-.22.22v.67l-.22.22v.9l-.22.22v.67l-.22.22v.22l-.22.22v.45l-.22.22v.45l-.22.22v.67l-.22.22v.67l-.22.22v.45l-.22.22v.45l-.22.22v.45l-.22.22v.67l-.22.22v.45l-.22.22v.45l-.22.22v.22l-.22.22v.45l-.22.22v.45l-.22.22v.45l-.22.22v.45l-.22.22v.22l-.22.22v.45l-.22.22v.67l-.22.22v.45l-.22.22v.45l-.22.22v.22l-.22.22v.22l-.22.22v.45l-.22.22v.45l-.22.22v.22l-.67.67h-.45l-.22.22h-.45l-.22-.22h-.45l-.67-.67v-.9l.22-.22v-.45l.22-.22v-.22l.22-.22v-.22l.22-.22v-.45l.22-.22v-.45l.22-.22v-.45l.22-.22v-.22l.22-.22v-.22l.22-.22v-.22l.22-.22v-.45l.22-.22v-.45l.22-.22v-.22l.22-.22v-.22l.22-.22v-.45l.22-.22v-.67l.22-.22v-.45l.22-.22v-.45l.22-.22v-.45l.22-.22v-.45l.22-.22v-.67l.22-.22v-.67l.22-.22v-.45l.22-.22v-.22l.22-.22v-.67l.22-.22v-.45l.22-.22v-.45l.22-.22v-.45l.22-.22v-.45l.22-.22v-.45l.22-.22v-.67l.22-.22v-.67l.22-.22v-.67l.22-.22v-.67l.22-.22v-.45l.22-.22v-.9l.22-.22v-.67l.22-.22v-.67l.22-.22v-.67l.22-.22v-.45l.22-.22v-.9l.22-.22v-.9l.22-.22v-.67l.22-.22v-.45l.67-.67h1.34ZM430.31,208.26h.22l.22-.22h.45l.22.22h.22l.67.67v.45l.22.22v.45l.22.22v.22l.22.22v.45l.22.22v.45l.22.22v.45l.22.22v.22l.22.22v.22l.22.22v.45l.22.22v.67l.22.22v.45l.22.22v.22l.22.22v.22l.22.22v.22l.22.22v.45l.22.22v.45l.22.22v.22l.22.22v.22l.22.22v.45l.22.22v.22l.22.22v.22l.22.22v.22l.22.22v.22l.22.22v.45l.22.22v.45l.22.22v.22l.22.22v.22l.45.45v.45l.22.22v.22l.22.22v.22l.22.22v.22l.45.45v.22l.22.22v.22l.22.22v.22l.22.22v.22l.45.45v.22l.22.22v.45l.22.22v.22l.45.45v.22l.22.22v.22l.22.22v.22l.22.22v.22l.45.45v.22l.22.22v.22l.45.45v.22l.45.45v.22l.45.45v.22l.45.45v.22l.67.67v.22l.45.45v.22l.67.67v.22l.22.22v.22l.9.9v.45l-.22.22v.22l-.22.22h-.22l-.22.22h-.22l-.22.22h-.45l-.22-.22h-.22l-1.34-1.34v-.22l-.67-.67v-.22l-.45-.45v-.22l-.67-.67v-.22l-.22-.22v-.22l-.22-.22v-.22l-.67-.67v-.22l-.22-.22v-.45l-.22-.22v-.22l-.9-.9v-.22l-.22-.22v-.22l-.22-.22v-.22l-.45-.45v-.22l-.22-.22v-.22l-.22-.22v-.22l-.45-.45v-.22l-.45-.45v-.45l-.22-.22v-.22l-.22-.22v-.22l-.22-.22v-.22l-.22-.22v-.22l-.22-.22v-.22l-.22-.22v-.22l-.22-.22v-.22l-.22-.22v-.22l-.22-.22v-.22l-.22-.22v-.22l-.22-.22v-.22l-.22-.22v-.45l-.22-.22v-.22l-.22-.22v-.22l-.22-.22v-.45l-.22-.22v-.45l-.22-.22v-.45l-.45-.45v-.45l-.22-.22v-.22l-.22-.22v-.45l-.22-.22v-.45l-.22-.22v-.22l-.22-.22v-.22l-.22-.22v-.45l-.22-.22v-.45l-.22-.22v-.22l-.22-.22v-.22l-.22-.22v-.45l-.22-.22v-.45l-.22-.22v-.45l-.22-.22v-.67l-.22-.22v-.45l-.22-.22v-.45l-.22-.22v-1.34l.45-.45ZM393.56,208.04h.22l.22.22h.45l.45.45v.45l.22.22v2.02l.22.22v1.34l.22.22v1.57l.22.22v1.12l.22.22v1.79l.22.22v2.69l.22.22v1.79l.22.22v.9l.22.22v.9l.22.22v1.79l.22.22v1.79l.22.22v1.57l.22.22v1.12l.22.22v.9l.22.22v1.34l.22.22v1.79l.22.22v1.12l.22.22v.9l.22.22v1.57l-.67.67h-.45l-.22.22h-1.12l-.45-.45v-.67l-.22-.22v-1.34l-.22-.22v-1.12l-.22-.22v-1.12l-.22-.22v-.67l-.22-.22v-1.12l-.22-.22v-1.57l-.22-.22v-1.34l-.22-.22v-1.12l-.22-.22v-1.34l-.22-.22v-2.46l-.22-.22v-2.24l-.22-.22v-1.34l-.22-.22v-.9l-.22-.22v-1.12l-.22-.22v-2.46l-.22-.22v-3.36l-.22-.22v-2.69l-.22-.22v-.67l.22-.22v-.22l.45-.45h.45l.22-.22ZM306.39,208.26l.22.22v1.79l-.22.22v.45l-.22.22v.22l-.22.22v.45l-.22.22v.45l-.22.22v.45l-.22.22v.45l-.22.22v.22l-.22.22v.22l-.22.22v.22l-.22.22v.67l-.22.22v.22l-.22.22v.22l-.22.22v.22l-.22.22v.22l-.22.22v.67l-.22.22v.45l-.22.22v.22l-.45.45v.22l-.22.22v.45l-.22.22v.22l-.22.22v.22l-.22.22v.45l-.22.22v.22l-.22.22v.22l-.22.22v.22l-.22.22v.22l-.45.45v.22l-.22.22v.45l-.22.22v.22l-.45.45v.22l-.22.22v.22l-.22.22v.22l-.22.22v.22l-.22.22v.22l-.45.45v.22l-.22.22v.22l-.22.22v.22l-.45.45v.22l-.45.45v.22l-.22.22v.22l-.67.67v.22l-.45.45v.22l-.45.45v.22l-.22.22v.22l-.22.22v.22l-.67.67v.22l-.45.45v.22l-.22.22v.22l-.67.67v.22l-1.34,1.34v.22l-.67.67h-.22l-.22.22h-.67l-.22-.22h-.45l-.67-.67v-.9l.67-.67v-.22l.9-.9v-.22l.45-.45v-.22l.9-.9v-.22l.45-.45v-.22l.9-.9v-.22l.67-.67v-.22l.22-.22v-.22l.22-.22v-.22l.22-.22v-.22l.45-.45v-.22l.22-.22v-.22l.22-.22v-.22l.22-.22v-.22l.45-.45v-.22l.22-.22v-.22l.22-.22v-.22l.45-.45v-.22l.45-.45v-.22l.22-.22v-.22l.22-.22v-.22l.22-.22v-.22l.45-.45v-.45l.22-.22v-.22l.22-.22v-.22l.45-.45v-.22l.22-.22v-.45l.22-.22v-.22l.22-.22v-.22l.45-.45v-.22l.22-.22v-.45l.22-.22v-.22l.22-.22v-.22l.22-.22v-.22l.22-.22v-.22l.22-.22v-.22l.22-.22v-.22l.22-.22v-.45l.22-.22v-.22l.22-.22v-.22l.22-.22v-.45l.22-.22v-.45l.22-.22v-.22l.22-.22v-.22l.22-.22v-.22l.22-.22v-.67l.22-.22v-.45l.22-.22v-.22l.22-.22v-.22l.22-.22v-.45l.22-.22v-.45l.9-.9h.9l.22.22h.22ZM447.12,207.59h.9l.9.9v.22l.45.45v.22l.22.22v.22l.22.22v.22l.22.22v.45l.22.22v.45l.45.45v.22l.22.22v.45l.22.22v.22l.22.22v.45l.22.22v.22l.22.22v.22l.22.22v.22l.22.22v.22l.22.22v.22l.22.22v.22l.22.22v.22l.22.22v.22l.45.45v.22l.22.22v.22l.45.45v.22l.45.45v.22l.45.45v.22l.45.45v.22l.22.22v.22l.67.67v.22l.22.22v.22l.22.22v.22l.9.9v.22l.67.67v.22l.67.67v.22l.67.67v.22l.22.22v.22l.67.67v.22l1.34,1.34v.22l1.57,1.57v.22l2.02,2.02h.22l1.79,1.79h.22l1.79,1.79v.22l.22.22v.22l-.67.67h-.22l-.22.22h-.67l-.22-.22h-.22l-.22-.22h-.22l-.67-.67h-.22l-4.48-4.48h-.22l-.22-.22v-.22l-1.34-1.34v-.22l-.67-.67v-.22l-1.79-1.79v-.22l-.9-.9v-.22l-.45-.45v-.22l-.67-.67v-.22l-.67-.67v-.22l-.45-.45v-.22l-.22-.22v-.22l-.9-.9v-.22l-.22-.22v-.22l-.22-.22v-.22l-.45-.45v-.22l-.22-.22v-.22l-.45-.45v-.22l-.45-.45v-.22l-.22-.22v-.45l-.22-.22v-.22l-.22-.22v-.22l-.22-.22v-.22l-.22-.22v-.22l-.22-.22v-.22l-.22-.22v-.22l-.22-.22v-.22l-.22-.22v-.22l-.22-.22v-.22l-.22-.22v-.22l-.22-.22v-.22l-.22-.22v-.22l-.22-.22v-.22l-.22-.22v-.22l-.22-.22v-.22l-.22-.22v-.45l-.22-.22v-.22l-.22-.22v-.22l-.22-.22v-.22l-.22-.22v-.67l-.22-.22v-.9l.67-.67ZM289.36,207.59l.45.45v.22l.22.22v.45l-.22.22v.45l-.22.22v.45l-.45.45v.22l-.22.22v.22l-.22.22v.22l-.22.22v.22l-.22.22v.22l-.45.45v.22l-.22.22v.45l-.45.45v.22l-.45.45v.22l-.22.22v.22l-.22.22v.22l-.22.22v.22l-.45.45v.22l-.22.22v.22l-.45.45v.22l-.45.45v.22l-.22.22v.45l-.9.9v.22l-.45.45v.22l-.9.9v.22l-.22.22v.22l-.9.9v.22l-.22.22v.22l-.9.9v.22l-.9.9v.22l-1.12,1.12v.22l-1.57,1.57v.22l-.22.22h-.22l-.67.67v.22l-4.93,4.93h-.22l-1.34,1.34h-.22l-1.12,1.12h-.22l-.22.22h-.22l-.22.22h-.45l-.22-.22h-.67l-.22-.22h-.45l-.45-.45v-.45l.67-.67h.22l1.57-1.57h.22l1.57-1.57h.22l.9-.9h.22l4.71-4.71v-.22l1.12-1.12v-.22l1.12-1.12v-.22l.9-.9v-.22l1.12-1.12v-.22l.67-.67v-.22l.45-.45v-.22l.45-.45v-.22l.67-.67v-.22l.22-.22v-.22l.45-.45v-.22l.45-.45v-.22l.45-.45v-.22l.9-.9v-.22l.22-.22v-.22l.45-.45v-.22l.22-.22v-.22l.22-.22v-.22l.22-.22v-.22l.45-.45v-.22l.22-.22v-.22l.22-.22v-.22l.22-.22v-.22l.45-.45v-.22l.22-.22v-.22l.22-.22v-.22l.22-.22v-.22l.22-.22v-.22l.45-.45v-.22l.22-.22v-.22l.67-.67h1.12Z"/>
    <g>
      <path class="cls-2" d="M381.56,76.85c-2.88-.13-5.77-.22-8.68-.26-.19,0-.38-.01-.57-.01v40.42c0,.46.38.84.84.84h31.54c.46,0,.84-.38.84-.84v-21.89c0-.46-.38-.84-.84-.84h-14.39c-.46,0-.84.38-.84.84v6.7c0,.46.38.84.84.84h6.23c.46,0,.84.38.84.84v5.34c0,.46-.38.84-.84.84h-14.13c-.46,0-.84-.38-.84-.84v-19.49c0-.48.41-.87.89-.85,138.65,7.06,248.89,121.71,248.89,262.11s-110.24,255.06-248.89,262.12c-.48.02-.89-.36-.89-.85v-19.28c0-.46.38-.84.84-.84h14.13c.46,0,.84.38.84.84v5.34c0,.46-.38.84-.84.84h-6.23c-.46,0-.84.38-.84.84v6.71c0,.46.38.84.84.84h14.39c.46,0,.84-.38.84-.84v-21.9c0-.46-.38-.84-.84-.84h-31.54c-.46,0-.84.38-.84.84v40.2c.19,0,.38-.01.57-.01,2.91-.04,5.8-.13,8.68-.26,145.46-6.62,261.37-126.65,261.37-273.75S527.02,83.47,381.56,76.85Z"/>
      <path class="cls-2" d="M356.21,76.86c-145.47,6.62-261.36,126.64-261.36,273.74s115.89,267.12,261.36,273.74c2.89.14,5.8.23,8.72.27.18,0,.36.01.54.01v-40.2c0-.46-.38-.84-.84-.84h-31.55c-.46,0-.84.38-.84.84v21.9c0,.46.38.84.84.84h14.4c.46,0,.84-.38.84-.84v-6.71c0-.46-.38-.84-.84-.84h-6.23c-.46,0-.84-.38-.84-.84v-5.34c0-.46.38-.84.84-.84h14.12c.46,0,.84.38.84.84v19.28c0,.48-.41.87-.89.85-138.64-7.07-248.89-121.72-248.89-262.12S216.68,95.56,355.32,88.49c.48-.02.89.36.89.85v19.49c0,.46-.38.84-.84.84h-14.12c-.46,0-.84-.38-.84-.84v-5.34c0-.46.38-.84.84-.84h6.23c.46,0,.84-.38.84-.84v-6.7c0-.46-.38-.84-.84-.84h-14.4c-.46,0-.84.38-.84.84v21.89c0,.46.38.84.84.84h31.55c.46,0,.84-.38.84-.84v-40.42c-.18,0-.36.01-.54.01-2.92.04-5.83.13-8.72.27Z"/>
    </g>
  </g>
  <circle class="cls-1" cx="369.44" cy="152.77" r="17.65"/>
  <g>
    <rect class="cls-1" x="365.32" y="295.68" width="11.44" height="2.64"/>
    <rect class="cls-1" x="365.32" y="291.75" width="11.44" height="2.67"/>
    <path class="cls-2" d="M401.1,277.26h-62.41c-1.09,0-1.97.88-1.97,1.97v74.58c0,1.09.88,1.97,1.97,1.97h62.41c1.09,0,1.97-.88,1.97-1.97v-74.58c0-1.09-.88-1.97-1.97-1.97ZM358.86,289.15c.13-.46.37-.84.73-1.12.42-.33.73-.78.92-1.35.2-.57.35-1.07.46-1.48.11-.44.23-.71.36-.82.13-.11.32.1.56.63.07.15.13.39.18.71.05.32.08.6.08.84h18.1l.46-1.25c.11-.37.29-.55.53-.53.24.02.77.33,1.58.92.33.31.53.57.61.78.08.21.08.39.02.54-.11.18-.27.33-.48.46-.21.13-.41.25-.61.36-.18.13-.36.29-.56.48-.2.19-.38.39-.56.61-.18.2-.35.4-.51.59s-.3.34-.41.43c-.29.26-.55.34-.79.23-.24-.11-.29-.4-.13-.86l.49-1.48h-17.67c-.02.73-.13,1.33-.33,1.81-.2.48-.45.84-.76,1.06-.31.22-.64.31-1.01.28-.36-.03-.68-.21-.94-.54-.35-.4-.46-.82-.33-1.29ZM361.99,305.08c-.35,0-.73.03-1.12.1s-.66.11-.79.13l-.76-1.71c.33.07.6.11.82.13.24.02.5.04.77.07.27.02.53.03.78.03h8.01v-4.19c.29.04.67.12,1.15.21.48.1.85.18,1.09.25.51.15.81.32.91.49.1.18.12.35.05.53-.07.2-.16.38-.3.54-.13.16-.2.29-.2.38v1.78h5.8l.56-1.12c.26-.53.66-.7,1.19-.53.53.18,1.34.69,2.44,1.55.48.4.7.72.64.97-.05.25-.32.38-.81.38h-20.25ZM381.31,311.59c.04.32-.01.61-.16.87-.29.55-.6.85-.94.91-.34.05-.67-.04-.97-.28-.31-.24-.62-.58-.92-1.01-.31-.43-.6-.86-.89-1.3-.22-.33-.5-.66-.82-1.01-.33-.34-.67-.66-1.02-.97-.35-.31-.69-.59-1.02-.84-.33-.25-.62-.45-.86-.58-.44-.2-.65-.41-.64-.63.01-.22.29-.32.84-.3.31.02.69.09,1.15.21.46.12.93.29,1.42.51.55.2,1.09.45,1.62.74.53.3,1.02.62,1.48.97.26.24.53.51.79.81.26.3.47.61.63.94.18.31.29.62.33.94ZM368.91,308.11c-.11.13-.26.26-.46.38-.2.12-.35.25-.46.38-.37.4-.79.82-1.25,1.27-.46.45-.98.88-1.55,1.3-.53.42-1.12.79-1.78,1.1-.66.32-1.4.54-2.21.68-.24.07-.48.08-.73.03-.24-.04-.42-.11-.53-.2-.09-.11-.1-.23-.03-.36.07-.13.27-.29.63-.46.42-.2.9-.5,1.43-.91.54-.41,1.08-.88,1.63-1.43.55-.55,1.04-1.15,1.48-1.8.44-.65.77-1.31.99-1.99h.07s.08.07.25.15c.17.08.36.16.58.25.24.11.48.23.73.36.24.13.45.24.63.33.37.2.59.37.66.51.07.14.04.28-.07.41ZM362.65,299.93v-10.39c.31,0,.61.05.91.15.3.1.58.21.84.35.24.11.54.26.89.46h11.41l.49-1.06c.11-.26.29-.36.53-.3.24.07.66.33,1.25.79.57.44.91.77,1.01,1.01.1.23.12.42.05.58-.09.15-.21.29-.36.41-.15.12-.23.28-.23.48v6.76c0,.42-.14.75-.41,1.01-.27.25-.58.4-.91.45-.35.04-.67-.01-.94-.16-.28-.15-.41-.45-.41-.89h-11.44c0,.42-.14.74-.43.97-.29.23-.59.37-.92.41-.31.04-.61-.02-.89-.18-.29-.16-.43-.45-.43-.84ZM362.58,336.57c-.15,1.19-.37,2.3-.64,3.35-.28,1.04-.59,1.97-.94,2.79-.31.81-.64,1.5-1.01,2.06-.36.56-.67.95-.91,1.17-.64.53-1.07.7-1.3.53-.23-.18-.14-.6.28-1.29.24-.37.5-.95.77-1.73.27-.78.52-1.7.74-2.75.24-1.06.43-2.21.56-3.48.13-1.26.2-2.57.2-3.91v-13.95c.31,0,.63.07.97.2.34.13.63.28.87.43.24.15.54.37.89.66h7.55v-4.15l2.24.49c.51.13.81.29.92.46.11.18.13.35.07.53-.07.18-.17.34-.31.49-.14.15-.21.28-.21.36v1.81h6.1l.56-1.25c.24-.55.62-.7,1.14-.45.52.25,1.21.74,2.09,1.47.55.46.81.82.78,1.09-.03.26-.32.4-.87.4h-20.08c0,.46,0,1.32-.02,2.57-.01,1.25-.03,2.63-.05,4.12-.02,1.52-.07,3.01-.13,4.47-.07,1.46-.15,2.63-.26,3.51ZM369.21,329.74v15.33c0,.35-.14.65-.41.91-.27.25-.58.41-.91.48-.35.09-.66.07-.92-.07-.26-.13-.4-.41-.4-.82v-12.33s-.09.1-.21.25c-.12.14-.3.32-.54.54-.24.22-.53.46-.86.71-.33.25-.68.48-1.05.68-.48.29-.8.26-.94-.07-.14-.33-.04-.66.31-.99.55-.46,1.13-1.1,1.73-1.91.6-.81,1.2-1.75,1.8-2.8.62-1.03,1.19-2.17,1.71-3.41.53-1.24.97-2.53,1.32-3.87h.07s.05.06.15.1c.1.04.24.11.41.2.18.09.38.18.63.28.24.1.48.21.73.35.42.24.66.46.74.66.08.2.07.38-.02.56-.09.15-.22.31-.4.46-.18.15-.3.31-.36.46-.22.51-.47,1.01-.76,1.52-.29.51-.56.96-.82,1.35-.24.42-.46.76-.66,1.02-.2.26-.31.41-.33.43ZM373.6,338.74c-.09-.26-.17-.59-.25-.97-.08-.38-.17-.77-.28-1.17-.13-.55-.33-1.07-.59-1.57-.26-.49-.48-.91-.66-1.24-.18-.35-.26-.6-.26-.76s.19-.18.56-.07c.44.13.99.41,1.65.84.66.43,1.21.98,1.65,1.67.44.73.63,1.45.56,2.18-.07.73-.41,1.23-1.02,1.52-.35.2-.64.25-.86.15s-.38-.29-.49-.58ZM384.05,329.94c-.13.22-.39.33-.76.33h-3.13v13.55c0,.77-.23,1.4-.68,1.88-.45.48-.9.73-1.34.73-.15,0-.3-.04-.45-.13-.14-.09-.24-.16-.28-.23-.18-.22-.41-.4-.71-.54-.3-.14-.6-.26-.91-.35-.29-.07-.54-.12-.76-.17-.22-.04-.34-.07-.36-.07-.42-.04-.65-.2-.71-.46s.19-.4.74-.4h2.77v-13.82h-5.11c-.22,0-.42.01-.61.03-.19.02-.35.03-.48.03-.13.02-.31.04-.53.07l-.63-1.62c.31.04.57.08.79.1.2.04.41.07.64.08.23.01.45.02.64.02h5.28v-6.3c.75.15,1.48.33,2.21.53.55.18.87.36.97.54.1.19.12.38.05.58-.07.2-.18.39-.33.56-.15.18-.23.33-.23.46v3.63h.46l.53-1.15c.18-.42.42-.55.74-.41.32.14.84.58,1.57,1.3.53.59.73,1,.59,1.22Z"/>
  </g>
</svg>