<?xml version="1.0" standalone="no"?>
<!DOCTYPE svg PUBLIC "-//W3C//DTD SVG 20010904//EN"
 "http://www.w3.org/TR/2001/REC-SVG-20010904/DTD/svg10.dtd">
<svg version="1.0" xmlns="http://www.w3.org/2000/svg"
 width="512.000000pt" height="512.000000pt" viewBox="0 0 512.000000 512.000000"
 preserveAspectRatio="xMidYMid meet">

<g transform="translate(0.000000,512.000000) scale(0.100000,-0.100000)"
fill="#000000" stroke="none">
<path d="M0 2560 l0 -2560 2560 0 2560 0 0 2560 0 2560 -2560 0 -2560 0 0
-2560z m3967 2339 c460 -51 834 -392 929 -849 11 -55 17 -129 17 -210 0 -245
-72 -459 -219 -650 -74 -96 -1243 -1253 -1313 -1300 -412 -275 -979 -228
-1323 110 -93 92 -112 169 -63 267 42 83 133 130 222 114 49 -9 79 -26 126
-68 67 -60 158 -112 241 -140 113 -36 276 -38 386 -4 163 50 144 34 801 690
605 604 607 606 648 691 126 258 80 543 -118 740 -132 132 -277 186 -476 178
-127 -6 -230 -35 -323 -94 -35 -22 -210 -189 -457 -435 -271 -270 -412 -403
-437 -414 -52 -21 -131 -19 -176 4 -71 37 -122 113 -122 183 0 92 -2 89 428
521 224 225 432 428 462 451 121 94 289 171 435 200 137 27 203 30 332 15z
m-1516 -1682 c168 -44 325 -129 448 -243 103 -95 126 -180 76 -281 -37 -73
-89 -106 -175 -111 -78 -5 -109 8 -183 74 -64 58 -147 107 -227 135 -55 20
-85 23 -200 24 -116 0 -145 -3 -209 -24 -137 -45 -180 -82 -722 -627 -500
-502 -507 -510 -548 -594 -172 -353 -11 -758 353 -888 97 -34 265 -42 369 -17
73 17 162 56 220 96 18 12 185 174 372 360 227 226 352 343 377 354 115 47
257 -20 289 -137 13 -48 6 -115 -15 -156 -23 -43 -735 -744 -797 -785 -196
-127 -377 -181 -604 -180 -288 1 -525 97 -733 297 -215 206 -325 467 -325 766
0 245 72 459 219 650 70 91 1083 1093 1149 1137 125 84 263 140 412 168 119
22 331 14 454 -18z"/>
</g>
</svg>
